<svg xmlns="http://www.w3.org/2000/svg" width="121.501" height="18.226" viewBox="0 0 121.501 18.226">
  <g id="Group_462" data-name="Group 462" transform="translate(-688.473 -1703)">
    <path id="Path_1007" d="M-3831.2,4001.91c0,3.159-1.458,3.159-2.187,3.159s-2.187,0-2.187-3.159V3993h-3.726v9.477c0,3.645,2.43,6.237,5.913,6.237s5.913-2.592,5.913-6.237V3993h-3.726Z" transform="translate(4596.381 -2288)" fill="#343d45"/>
    <path id="Path_1008" d="M-3786.138,3992.4a8.245,8.245,0,0,0-8.262,8.262,8.3,8.3,0,0,0,8.262,8.262,8.3,8.3,0,0,0,8.262-8.262A8.3,8.3,0,0,0-3786.138,3992.4Zm0,12.718a4.46,4.46,0,0,1-4.455-4.536,4.55,4.55,0,0,1,4.374-4.536,4.55,4.55,0,0,1,4.536,4.374v.081A4.531,4.531,0,0,1-3786.138,4005.117Z" transform="translate(4587.85 -2288.399)" fill="#343d45"/>
    <path id="Path_1009" d="M-3915.657,3989.8l-8.343,18.144h4.212l1.62-3.483h5.022l1.62,3.483h4.212Zm-1.62,11.583,1.539-3.807,1.539,3.807Z" transform="translate(4612.473 -2286.8)" fill="#343d45"/>
    <path id="Path_1010" d="M-3892.925,3993.1H-3899v15.309h3.807v-4.374h2.025c3.726,0,6.075-2.106,6.075-5.508v-.081C-3887.012,3995.125-3889.28,3993.1-3892.925,3993.1Zm2.025,5.589a2.072,2.072,0,0,1-2.349,2.106h-1.944v-4.212h1.944a1.965,1.965,0,0,1,2.349,2.106Z" transform="translate(4607.723 -2288.1)" fill="#343d45"/>
    <path id="Path_1011" d="M-3873.525,3993.1h-6.075v15.309h3.807v-4.374h2.025c3.726,0,6.075-2.106,6.075-5.508v-.081C-3867.612,3995.125-3869.88,3993.1-3873.525,3993.1Zm2.025,5.589a2.072,2.072,0,0,1-2.349,2.106h-1.944v-4.212h1.944a1.965,1.965,0,0,1,2.349,2.106Z" transform="translate(4604.037 -2288.1)" fill="#343d45"/>
    <path id="Path_1012" d="M-3852.876,3997.39c-3-.81-3.645-1.134-3.645-2.187v-.081c0-.81.81-1.377,2.106-1.377a7.6,7.6,0,0,1,4.455,1.7l.081.081,2.106-3.078-.081-.081a10.741,10.741,0,0,0-6.561-2.268c-3.645,0-6.237,2.187-6.237,5.346v.081c0,3.645,2.511,4.617,5.913,5.427,2.916.729,3.4,1.215,3.4,2.106v.081c0,.972-.891,1.539-2.349,1.539a8.008,8.008,0,0,1-5.1-2.106l-.081-.081-2.43,2.916.081.081a10.967,10.967,0,0,0,7.452,2.835c4.05,0,6.561-2.106,6.561-5.508v-.081C-3847.206,3999.5-3849.474,3998.2-3852.876,3997.39Z" transform="translate(4600.561 -2287.101)" fill="#343d45"/>
    <path id="Path_1013" d="M-3811.385,4009.086l-4.617-7.776-1.377,7.209h-3.321l3.4-16.119,5.994,10.125,5.67-10.125,3.4,16.119h-3.564l-1.3-7.128Z" transform="translate(4592.848 -2288.399)" fill="#343d45"/>
  </g>
</svg>
