<svg xmlns="http://www.w3.org/2000/svg" width="259" height="37" viewBox="0 0 259 37">
  <g id="Group_461" data-name="Group 461" transform="translate(-925 -1629)">
    <path id="ph" d="M104.953,36.286c-4.22,1.634-5.936.086-5.936-.891C100.512,35.269,104.084,35.064,104.953,36.286Zm5.356-1.336a5.486,5.486,0,0,1-7.083-.5C104.666,34.053,108.6,33.579,110.309,34.95Zm-7.139-3.176c.16,2.033-1.922,3.176-4.17,3.341.41-2.045,2.509-2.958,4.17-3.341ZM107.2,29.9c.238.869-.089,3.228-3.323,4.164A4.373,4.373,0,0,1,107.2,29.9Zm6.413,2.365a5,5,0,0,1-6.385.571C108.526,32.168,111.638,31.266,113.615,32.265ZM110.2,27.559c.443.856.537,3.3-2.326,4.763-.166-1.57.465-4.255,2.326-4.763Zm7.083.948a4.389,4.389,0,0,1-2.657,2.217,4.243,4.243,0,0,1-3.39-.44c1.805-1.7,4.685-2.348,6.047-1.777ZM113,23.96c1.284,2.24-.073,4.8-1.485,5.849A5.836,5.836,0,0,1,113,23.96Zm6.662-.1c.155,3.479-3.478,3.29-5.184,3.313C115.016,26.445,118,23.795,119.663,23.863Zm-4.48-3.25a4.623,4.623,0,0,1-.555,5.929c-.7-1.685-.858-4.272.554-5.929Zm6.385-1.542c.116,2.81-2.249,4.232-4.53,4.21C117.724,21.927,119.558,19.317,121.568,19.071Zm-4.785-1.936c1.512.89,1.34,3.764.448,5.26C116.229,21,115.481,19.271,116.783,17.135Zm4.884-2.633A3.54,3.54,0,0,1,118.9,18.94c.338-1.222.781-3.387,2.77-4.438Zm-4.607-.851a3.794,3.794,0,0,1,1.833,4.632C117.73,17.346,116.329,15.364,117.06,13.651Zm4.685-3.1a3.128,3.128,0,0,1-2.215,4.38C119.635,13.611,120.477,10.972,121.745,10.555Zm-4.619-.817a4.339,4.339,0,0,1,2.254,4.61A4.017,4.017,0,0,1,117.126,9.738Zm3.921-3.9c1.152,3.826-.77,5.4-1.4,5.71-.1-1.21-.222-4.037,1.4-5.71Zm-4.264.1c1.207.337,2.73,2.553,2.658,4.684C118.245,10.07,116.456,7.791,116.783,5.934ZM117.143,0c2.8,2.9,3.195,5.18,2.376,8C118.25,6.854,117.237,3.427,117.143,0ZM17.047,36.286c4.22,1.634,5.936.086,5.936-.891C21.488,35.269,17.916,35.064,17.047,36.286ZM11.69,34.95a5.486,5.486,0,0,0,7.083-.5c-1.44-.4-5.372-.874-7.083.5Zm7.139-3.176c-.16,2.033,1.922,3.176,4.17,3.341-.41-2.045-2.509-2.958-4.17-3.341ZM14.8,29.9c-.238.869.089,3.228,3.323,4.164A4.373,4.373,0,0,0,14.8,29.9ZM8.385,32.265a5,5,0,0,0,6.385.571C13.474,32.168,10.362,31.266,8.385,32.265ZM11.8,27.559c-.443.856-.537,3.3,2.326,4.763.166-1.57-.465-4.255-2.326-4.763Zm-7.083.948a4.389,4.389,0,0,0,2.657,2.217,4.243,4.243,0,0,0,3.39-.44c-1.8-1.7-4.685-2.348-6.047-1.777ZM9,23.96c-1.284,2.24.073,4.8,1.485,5.849A5.836,5.836,0,0,0,9,23.96Zm-6.662-.1c-.155,3.479,3.478,3.29,5.184,3.313C6.984,26.445,4,23.795,2.337,23.863Zm4.48-3.25a4.623,4.623,0,0,0,.555,5.929c.7-1.685.858-4.272-.554-5.929ZM.433,19.071c-.116,2.81,2.249,4.232,4.53,4.21-.686-1.354-2.52-3.964-4.53-4.21Zm4.785-1.936c-1.512.89-1.34,3.764-.448,5.26C5.772,21,6.52,19.271,5.218,17.135ZM.333,14.5A3.54,3.54,0,0,0,3.1,18.94c-.338-1.222-.781-3.387-2.77-4.438Zm4.607-.851a3.794,3.794,0,0,0-1.833,4.632c1.163-.937,2.564-2.919,1.833-4.632Zm-4.685-3.1a3.128,3.128,0,0,0,2.215,4.38c-.105-1.324-.947-3.963-2.215-4.38Zm4.619-.817a4.339,4.339,0,0,0-2.254,4.61,4.017,4.017,0,0,0,2.254-4.61ZM.953,5.838c-1.152,3.826.77,5.4,1.4,5.71.1-1.21.222-4.037-1.4-5.71Zm4.264.1c-1.207.337-2.73,2.553-2.658,4.684C3.755,10.07,5.544,7.791,5.217,5.934ZM4.857,0c-2.8,2.9-3.195,5.18-2.376,8C3.75,6.854,4.763,3.427,4.857,0Zm49.1,35a.27.27,0,0,0,.288-.27V32.948a.284.284,0,0,0-.288-.288h-4.41l3.006-3.06a4.872,4.872,0,0,0,1.674-3.492,3.876,3.876,0,0,0-4.176-3.852,4.606,4.606,0,0,0-3.924,2.07.286.286,0,0,0,.036.4l1.242,1.242c.162.144.27.162.414,0a2.442,2.442,0,0,1,2-1.188A1.573,1.573,0,0,1,51.55,26.36a3.76,3.76,0,0,1-1.422,2.466l-3.744,3.8a.538.538,0,0,0-.126.342V34.73a.27.27,0,0,0,.288.27h7.416Zm4.572,0a.27.27,0,0,0,.288-.27V30.266c0-1.17.576-1.782,1.53-1.782.972,0,1.476.612,1.476,1.782V34.73a.27.27,0,0,0,.288.27h2.178a.27.27,0,0,0,.288-.27V29.618c0-2.3-1.35-3.654-3.186-3.654a2.789,2.789,0,0,0-2.574,1.53l-.09-1.026c0-.216-.108-.288-.27-.288H56.338a.255.255,0,0,0-.27.27v8.28a.255.255,0,0,0,.27.27h2.2Zm11.754.216a3.168,3.168,0,0,0,2.754-1.35l.036.864a.27.27,0,0,0,.288.27h1.98a.286.286,0,0,0,.306-.27V22.4a.27.27,0,0,0-.288-.27H73.15a.255.255,0,0,0-.27.27v4.662a3.208,3.208,0,0,0-2.592-1.1c-2.448,0-4.14,2.016-4.14,4.626,0,2.628,1.692,4.626,4.14,4.626Zm.594-2.5a2.125,2.125,0,0,1,0-4.248,1.966,1.966,0,0,1,2.034,2.106,1.976,1.976,0,0,1-2.034,2.142ZM20.72,15a.142.142,0,0,0,.15-.15V12.59h.72a2.175,2.175,0,0,0,2.49-2.29A2.182,2.182,0,0,0,21.59,8H19.44a.142.142,0,0,0-.15.15v6.7a.142.142,0,0,0,.15.15h1.28Zm.15-5.6h.68c.53,0,1.02.17,1.02.9s-.49.89-1.02.89h-.68Zm5.5,5.6a.15.15,0,0,0,.16-.15V12.49c0-.73.38-1.13,1.01-1.13a1.2,1.2,0,0,1,.36.05c.14.03.21,0,.21-.13v-.97a.215.215,0,0,0-.09-.2.7.7,0,0,0-.45-.13c-.57,0-.88.4-1.04.93l-.05-.65c0-.12-.06-.16-.15-.16H25.15a.142.142,0,0,0-.15.15v4.6a.142.142,0,0,0,.15.15Zm4.77.12a2.57,2.57,0,1,0-2.57-2.57,2.522,2.522,0,0,0,2.57,2.57Zm0-1.4a1.086,1.086,0,0,1-1.1-1.17,1.1,1.1,0,1,1,2.2,0,1.086,1.086,0,0,1-1.1,1.17Zm5.49,1.4a1.76,1.76,0,0,0,1.53-.75l.02.48a.15.15,0,0,0,.16.15h1.1a.159.159,0,0,0,.17-.15V8a.15.15,0,0,0-.16-.15H38.22a.142.142,0,0,0-.15.15v2.59a1.782,1.782,0,0,0-1.44-.61,2.371,2.371,0,0,0-2.3,2.57,2.366,2.366,0,0,0,2.3,2.57Zm.33-1.39a1.108,1.108,0,0,1-1.14-1.18,1.114,1.114,0,0,1,1.14-1.18,1.092,1.092,0,0,1,1.13,1.17A1.1,1.1,0,0,1,36.96,13.73Zm5.52,1.39a1.554,1.554,0,0,0,1.44-.85l.04.57a.142.142,0,0,0,.16.16h1.17a.15.15,0,0,0,.16-.15v-4.6a.15.15,0,0,0-.16-.15H44.08a.15.15,0,0,0-.16.15v2.48c0,.65-.33.99-.85.99-.54,0-.82-.34-.82-.99V10.25a.15.15,0,0,0-.16-.15H40.87a.142.142,0,0,0-.15.15v2.84a1.79,1.79,0,0,0,1.76,2.03Zm6.44,0a2.309,2.309,0,0,0,1.87-.9.145.145,0,0,0-.01-.21l-.69-.66a.179.179,0,0,0-.26-.01,1.211,1.211,0,0,1-.86.38,1.15,1.15,0,0,1-1.18-1.2,1.1,1.1,0,0,1,1.16-1.14,1.141,1.141,0,0,1,.86.38.19.19,0,0,0,.27-.01l.69-.66a.145.145,0,0,0,.01-.21,2.326,2.326,0,0,0-1.9-.9,2.487,2.487,0,0,0-2.56,2.54,2.54,2.54,0,0,0,2.6,2.6Zm4.77,0c.34,0,.88-.06.88-.31v-.83c0-.1-.08-.15-.18-.14-.13.01-.22.01-.31.01a.381.381,0,0,1-.42-.41V11.28h.75a.142.142,0,0,0,.15-.15v-.88a.142.142,0,0,0-.15-.15h-.75V8.95a.15.15,0,0,0-.16-.15H52.27a.15.15,0,0,0-.16.15V10.1H51.5a.142.142,0,0,0-.15.15v.88a.142.142,0,0,0,.15.15h.61v2.33a1.407,1.407,0,0,0,1.58,1.51Zm5.95,0a2.57,2.57,0,1,0-2.57-2.57A2.522,2.522,0,0,0,59.64,15.12Zm0-1.4a1.086,1.086,0,0,1-1.1-1.17,1.1,1.1,0,1,1,2.2,0A1.086,1.086,0,0,1,59.64,13.72ZM64.79,15a.15.15,0,0,0,.16-.15V11.28h.98a.142.142,0,0,0,.15-.15v-.88a.142.142,0,0,0-.15-.15h-.98V9.61c0-.33.11-.57.58-.57a2.8,2.8,0,0,1,.42.06c.07.01.13,0,.13-.07V8.02a.18.18,0,0,0-.09-.16,1.618,1.618,0,0,0-.82-.17,1.55,1.55,0,0,0-1.76,1.72v.69h-.58a.142.142,0,0,0-.15.15v.88a.142.142,0,0,0,.15.15h.58v3.57a.142.142,0,0,0,.15.15h1.23Zm6.08.12c.34,0,.88-.06.88-.31v-.83c0-.1-.08-.15-.18-.14-.13.01-.22.01-.31.01a.381.381,0,0,1-.42-.41V11.28h.75a.142.142,0,0,0,.15-.15v-.88a.142.142,0,0,0-.15-.15h-.75V8.95a.15.15,0,0,0-.16-.15H69.45a.15.15,0,0,0-.16.15V10.1h-.61a.142.142,0,0,0-.15.15v.88a.142.142,0,0,0,.15.15h.61v2.33a1.407,1.407,0,0,0,1.58,1.51Zm4.65-5.14a1.55,1.55,0,0,0-1.43.85V8a.15.15,0,0,0-.16-.15H72.71a.142.142,0,0,0-.15.15v6.85a.142.142,0,0,0,.15.15h1.22a.15.15,0,0,0,.16-.15V12.37c0-.65.32-.99.85-.99s.82.34.82.99v2.48a.15.15,0,0,0,.16.15h1.21a.15.15,0,0,0,.16-.15V12.01a1.8,1.8,0,0,0-1.77-2.03Zm5.34,5.14a2.426,2.426,0,0,0,1.74-.62.159.159,0,0,0,.05-.22l-.41-.58c-.06-.07-.1-.09-.18-.05a2.05,2.05,0,0,1-1.08.27,1.228,1.228,0,0,1-1.33-.79h2.82c.45,0,.58-.3.58-.8a2.267,2.267,0,0,0-2.37-2.35,2.445,2.445,0,0,0-2.52,2.55,2.54,2.54,0,0,0,2.7,2.59Zm-1.23-3.05a1,1,0,0,1,1.06-.83.92.92,0,0,1,1,.83Zm8.27,3.05a1.76,1.76,0,0,0,1.53-.75l.02.48a.15.15,0,0,0,.16.15h1.1a.159.159,0,0,0,.17-.15V8a.15.15,0,0,0-.16-.15H89.49a.142.142,0,0,0-.15.15v2.59a1.782,1.782,0,0,0-1.44-.61,2.371,2.371,0,0,0-2.3,2.57,2.366,2.366,0,0,0,2.3,2.57Zm.33-1.39a1.108,1.108,0,0,1-1.14-1.18,1.114,1.114,0,0,1,1.14-1.18,1.092,1.092,0,0,1,1.13,1.17,1.1,1.1,0,0,1-1.13,1.19Zm5.81,1.39a1.76,1.76,0,0,0,1.53-.75l.02.48a.15.15,0,0,0,.16.15h1.1a.159.159,0,0,0,.17-.15v-4.6a.15.15,0,0,0-.16-.15H95.75a.15.15,0,0,0-.16.15l-.02.47a1.74,1.74,0,0,0-1.53-.74,2.371,2.371,0,0,0-2.3,2.57,2.366,2.366,0,0,0,2.3,2.57Zm.33-1.39a1.108,1.108,0,0,1-1.14-1.18,1.114,1.114,0,0,1,1.14-1.18,1.092,1.092,0,0,1,1.13,1.17,1.1,1.1,0,0,1-1.13,1.19Zm5.96,3.17a.183.183,0,0,0,.18-.12l2.6-6.51c.04-.11-.02-.17-.13-.17h-1.24a.2.2,0,0,0-.19.12l-1.08,3-1.08-3a.2.2,0,0,0-.19-.12H97.96c-.11,0-.17.06-.13.17l1.9,4.74-.72,1.71c-.05.12.01.18.13.18Z" transform="translate(1062 1629)" fill="#4b587c"/>
    <path id="ph2" d="M104.953,36.286c-4.22,1.634-5.936.086-5.936-.891C100.512,35.269,104.084,35.064,104.953,36.286Zm5.356-1.336a5.486,5.486,0,0,1-7.083-.5C104.666,34.053,108.6,33.579,110.309,34.95Zm-7.139-3.176c.16,2.033-1.922,3.176-4.17,3.341.41-2.045,2.509-2.958,4.17-3.341ZM107.2,29.9c.238.869-.089,3.228-3.323,4.164A4.373,4.373,0,0,1,107.2,29.9Zm6.413,2.365a5,5,0,0,1-6.385.571C108.526,32.168,111.638,31.266,113.615,32.265ZM110.2,27.559c.443.856.537,3.3-2.326,4.763-.166-1.57.465-4.255,2.326-4.763Zm7.083.948a4.389,4.389,0,0,1-2.657,2.217,4.243,4.243,0,0,1-3.39-.44c1.805-1.7,4.685-2.348,6.047-1.777ZM113,23.96c1.284,2.24-.073,4.8-1.485,5.849A5.836,5.836,0,0,1,113,23.96Zm6.662-.1c.155,3.479-3.478,3.29-5.184,3.313C115.016,26.445,118,23.795,119.663,23.863Zm-4.48-3.25a4.623,4.623,0,0,1-.555,5.929c-.7-1.685-.858-4.272.554-5.929Zm6.385-1.542c.116,2.81-2.249,4.232-4.53,4.21C117.724,21.927,119.558,19.317,121.568,19.071Zm-4.785-1.936c1.512.89,1.34,3.764.448,5.26C116.229,21,115.481,19.271,116.783,17.135Zm4.884-2.633A3.54,3.54,0,0,1,118.9,18.94c.338-1.222.781-3.387,2.77-4.438Zm-4.607-.851a3.794,3.794,0,0,1,1.833,4.632C117.73,17.346,116.329,15.364,117.06,13.651Zm4.685-3.1a3.128,3.128,0,0,1-2.215,4.38C119.635,13.611,120.477,10.972,121.745,10.555Zm-4.619-.817a4.339,4.339,0,0,1,2.254,4.61A4.017,4.017,0,0,1,117.126,9.738Zm3.921-3.9c1.152,3.826-.77,5.4-1.4,5.71-.1-1.21-.222-4.037,1.4-5.71Zm-4.264.1c1.207.337,2.73,2.553,2.658,4.684C118.245,10.07,116.456,7.791,116.783,5.934ZM117.143,0c2.8,2.9,3.195,5.18,2.376,8C118.25,6.854,117.237,3.427,117.143,0ZM17.047,36.286c4.22,1.634,5.936.086,5.936-.891C21.488,35.269,17.916,35.064,17.047,36.286ZM11.69,34.95a5.486,5.486,0,0,0,7.083-.5c-1.44-.4-5.372-.874-7.083.5Zm7.139-3.176c-.16,2.033,1.922,3.176,4.17,3.341-.41-2.045-2.509-2.958-4.17-3.341ZM14.8,29.9c-.238.869.089,3.228,3.323,4.164A4.373,4.373,0,0,0,14.8,29.9ZM8.385,32.265a5,5,0,0,0,6.385.571C13.474,32.168,10.362,31.266,8.385,32.265ZM11.8,27.559c-.443.856-.537,3.3,2.326,4.763.166-1.57-.465-4.255-2.326-4.763Zm-7.083.948a4.389,4.389,0,0,0,2.657,2.217,4.243,4.243,0,0,0,3.39-.44c-1.8-1.7-4.685-2.348-6.047-1.777ZM9,23.96c-1.284,2.24.073,4.8,1.485,5.849A5.836,5.836,0,0,0,9,23.96Zm-6.662-.1c-.155,3.479,3.478,3.29,5.184,3.313C6.984,26.445,4,23.795,2.337,23.863Zm4.48-3.25a4.623,4.623,0,0,0,.555,5.929c.7-1.685.858-4.272-.554-5.929ZM.433,19.071c-.116,2.81,2.249,4.232,4.53,4.21-.686-1.354-2.52-3.964-4.53-4.21Zm4.785-1.936c-1.512.89-1.34,3.764-.448,5.26C5.772,21,6.52,19.271,5.218,17.135ZM.333,14.5A3.54,3.54,0,0,0,3.1,18.94c-.338-1.222-.781-3.387-2.77-4.438Zm4.607-.851a3.794,3.794,0,0,0-1.833,4.632c1.163-.937,2.564-2.919,1.833-4.632Zm-4.685-3.1a3.128,3.128,0,0,0,2.215,4.38c-.105-1.324-.947-3.963-2.215-4.38Zm4.619-.817a4.339,4.339,0,0,0-2.254,4.61,4.017,4.017,0,0,0,2.254-4.61ZM.953,5.838c-1.152,3.826.77,5.4,1.4,5.71.1-1.21.222-4.037-1.4-5.71Zm4.264.1c-1.207.337-2.73,2.553-2.658,4.684C3.755,10.07,5.544,7.791,5.217,5.934ZM4.857,0c-2.8,2.9-3.195,5.18-2.376,8C3.75,6.854,4.763,3.427,4.857,0ZM52.1,35.234a4.36,4.36,0,0,0,4.626-4.41,4,4,0,0,0-3.96-4.248,5.53,5.53,0,0,0-1.35.2l.468-2.034h3.744a.284.284,0,0,0,.288-.288V22.67a.27.27,0,0,0-.288-.27h-5.49a.276.276,0,0,0-.288.234l-1.368,6.03c-.036.162.036.252.18.324l1.548.612a.419.419,0,0,0,.45-.162,2.136,2.136,0,0,1,1.44-.576,1.873,1.873,0,0,1,1.944,1.908,1.9,1.9,0,0,1-1.98,1.944,2.043,2.043,0,0,1-1.728-.918.291.291,0,0,0-.45-.072l-1.458,1.1a.316.316,0,0,0-.126.45,4.3,4.3,0,0,0,3.8,1.962Zm9.846-.018c.612,0,1.584-.108,1.584-.558V33.164c0-.18-.144-.27-.324-.252-.234.018-.4.018-.558.018a.686.686,0,0,1-.756-.738V28.3h1.35a.255.255,0,0,0,.27-.27V26.45a.255.255,0,0,0-.27-.27h-1.35V24.11a.27.27,0,0,0-.288-.27H59.389a.27.27,0,0,0-.288.27v2.07H58a.255.255,0,0,0-.27.27v1.584a.255.255,0,0,0,.27.27h1.1V32.5a2.532,2.532,0,0,0,2.844,2.718Zm8.37-9.252a2.789,2.789,0,0,0-2.574,1.53V22.4a.27.27,0,0,0-.288-.27h-2.2a.255.255,0,0,0-.27.27V34.73a.255.255,0,0,0,.27.27h2.2a.27.27,0,0,0,.288-.27V30.266c0-1.17.576-1.782,1.53-1.782.972,0,1.476.612,1.476,1.782V34.73a.27.27,0,0,0,.288.27h2.178a.27.27,0,0,0,.288-.27V29.618c0-2.3-1.35-3.654-3.186-3.654ZM17.175,15a.142.142,0,0,0,.15-.15V12.59h.72a2.175,2.175,0,0,0,2.49-2.29A2.182,2.182,0,0,0,18.045,8h-2.15a.142.142,0,0,0-.15.15v6.7a.142.142,0,0,0,.15.15h1.28Zm.15-5.6H18c.53,0,1.02.17,1.02.9s-.49.89-1.02.89h-.68Zm5.5,5.6a.15.15,0,0,0,.16-.15V12.49c0-.73.38-1.13,1.01-1.13a1.2,1.2,0,0,1,.36.05c.14.03.21,0,.21-.13v-.97a.215.215,0,0,0-.09-.2.7.7,0,0,0-.45-.13c-.57,0-.88.4-1.04.93l-.05-.65c0-.12-.06-.16-.15-.16H21.6a.142.142,0,0,0-.15.15v4.6a.142.142,0,0,0,.15.15h1.22Zm4.77.12a2.57,2.57,0,1,0-2.57-2.57A2.522,2.522,0,0,0,27.595,15.12Zm0-1.4a1.086,1.086,0,0,1-1.1-1.17,1.1,1.1,0,1,1,2.2,0A1.086,1.086,0,0,1,27.595,13.72Zm5.49,1.4a1.76,1.76,0,0,0,1.53-.75l.02.48a.15.15,0,0,0,.16.15h1.1a.159.159,0,0,0,.17-.15V8a.15.15,0,0,0-.16-.15h-1.23a.142.142,0,0,0-.15.15v2.59a1.782,1.782,0,0,0-1.44-.61,2.371,2.371,0,0,0-2.3,2.57,2.366,2.366,0,0,0,2.3,2.57Zm.33-1.39a1.108,1.108,0,0,1-1.14-1.18,1.114,1.114,0,0,1,1.14-1.18,1.092,1.092,0,0,1,1.13,1.17A1.1,1.1,0,0,1,33.415,13.73Zm5.52,1.39a1.554,1.554,0,0,0,1.44-.85l.04.57a.142.142,0,0,0,.16.16h1.17a.15.15,0,0,0,.16-.15v-4.6a.15.15,0,0,0-.16-.15h-1.21a.15.15,0,0,0-.16.15v2.48c0,.65-.33.99-.85.99-.54,0-.82-.34-.82-.99V10.25a.15.15,0,0,0-.16-.15h-1.22a.142.142,0,0,0-.15.15v2.84a1.79,1.79,0,0,0,1.76,2.03Zm6.44,0a2.309,2.309,0,0,0,1.87-.9.145.145,0,0,0-.01-.21l-.69-.66a.179.179,0,0,0-.26-.01,1.211,1.211,0,0,1-.86.38,1.15,1.15,0,0,1-1.18-1.2,1.1,1.1,0,0,1,1.16-1.14,1.141,1.141,0,0,1,.86.38.19.19,0,0,0,.27-.01l.69-.66a.145.145,0,0,0,.01-.21,2.326,2.326,0,0,0-1.9-.9,2.487,2.487,0,0,0-2.56,2.54,2.54,2.54,0,0,0,2.6,2.6Zm4.77,0c.34,0,.88-.06.88-.31v-.83c0-.1-.08-.15-.18-.14-.13.01-.22.01-.31.01a.381.381,0,0,1-.42-.41V11.28h.75a.142.142,0,0,0,.15-.15v-.88a.142.142,0,0,0-.15-.15h-.75V8.95a.15.15,0,0,0-.16-.15h-1.23a.15.15,0,0,0-.16.15V10.1h-.61a.142.142,0,0,0-.15.15v.88a.142.142,0,0,0,.15.15h.61v2.33a1.407,1.407,0,0,0,1.58,1.51Zm5.95,0a2.57,2.57,0,1,0-2.57-2.57A2.522,2.522,0,0,0,56.1,15.12Zm0-1.4A1.086,1.086,0,0,1,55,12.55a1.1,1.1,0,1,1,2.2,0A1.086,1.086,0,0,1,56.1,13.72ZM61.245,15a.15.15,0,0,0,.16-.15V11.28h.98a.142.142,0,0,0,.15-.15v-.88a.142.142,0,0,0-.15-.15h-.98V9.61c0-.33.11-.57.58-.57a2.8,2.8,0,0,1,.42.06c.07.01.13,0,.13-.07V8.02a.18.18,0,0,0-.09-.16,1.618,1.618,0,0,0-.82-.17,1.55,1.55,0,0,0-1.76,1.72v.69h-.58a.142.142,0,0,0-.15.15v.88a.142.142,0,0,0,.15.15h.58v3.57a.142.142,0,0,0,.15.15h1.23Zm6.08.12c.34,0,.88-.06.88-.31v-.83c0-.1-.08-.15-.18-.14-.13.01-.22.01-.31.01a.381.381,0,0,1-.42-.41V11.28h.75a.142.142,0,0,0,.15-.15v-.88a.142.142,0,0,0-.15-.15H67.3V8.95a.15.15,0,0,0-.16-.15H65.9a.15.15,0,0,0-.16.15V10.1h-.61a.142.142,0,0,0-.15.15v.88a.142.142,0,0,0,.15.15h.61v2.33a1.407,1.407,0,0,0,1.58,1.51Zm4.65-5.14a1.55,1.55,0,0,0-1.43.85V8a.15.15,0,0,0-.16-.15h-1.22a.142.142,0,0,0-.15.15v6.85a.142.142,0,0,0,.15.15h1.22a.15.15,0,0,0,.16-.15V12.37c0-.65.32-.99.85-.99s.82.34.82.99v2.48a.15.15,0,0,0,.16.15h1.21a.15.15,0,0,0,.16-.15V12.01a1.8,1.8,0,0,0-1.77-2.03Zm5.34,5.14a2.426,2.426,0,0,0,1.74-.62.159.159,0,0,0,.05-.22l-.41-.58c-.06-.07-.1-.09-.18-.05a2.05,2.05,0,0,1-1.08.27,1.228,1.228,0,0,1-1.33-.79h2.82c.45,0,.58-.3.58-.8a2.267,2.267,0,0,0-2.37-2.35,2.445,2.445,0,0,0-2.52,2.55,2.54,2.54,0,0,0,2.7,2.59Zm-1.23-3.05a1,1,0,0,1,1.06-.83.92.92,0,0,1,1,.83ZM84.955,15a.183.183,0,0,0,.18-.12l1.03-3,1.02,3a.183.183,0,0,0,.18.12h1.25a.183.183,0,0,0,.18-.12l1.52-4.61c.04-.11-.01-.17-.12-.17H89a.183.183,0,0,0-.18.12l-.91,3-.99-3a.183.183,0,0,0-.18-.12h-1.17a.183.183,0,0,0-.18.12l-.99,3-.91-3a.183.183,0,0,0-.18-.12h-1.18c-.11,0-.17.06-.13.17l1.52,4.61a.183.183,0,0,0,.18.12h1.25Zm8.28.12a2.426,2.426,0,0,0,1.74-.62.159.159,0,0,0,.05-.22l-.41-.58c-.06-.07-.1-.09-.18-.05a2.05,2.05,0,0,1-1.08.27,1.228,1.228,0,0,1-1.33-.79h2.82c.45,0,.58-.3.58-.8a2.267,2.267,0,0,0-2.37-2.35,2.445,2.445,0,0,0-2.52,2.55,2.54,2.54,0,0,0,2.7,2.59ZM92,12.07a1,1,0,0,1,1.06-.83.92.92,0,0,1,1,.83Zm6.73,3.05a2.426,2.426,0,0,0,1.74-.62.159.159,0,0,0,.05-.22l-.41-.58c-.06-.07-.1-.09-.18-.05a2.05,2.05,0,0,1-1.08.27,1.228,1.228,0,0,1-1.33-.79h2.82c.45,0,.58-.3.58-.8a2.267,2.267,0,0,0-2.37-2.35,2.445,2.445,0,0,0-2.52,2.55,2.54,2.54,0,0,0,2.7,2.59ZM97.5,12.07a1,1,0,0,1,1.06-.83.92.92,0,0,1,1,.83Zm5.66,2.93a.15.15,0,0,0,.16-.15v-.99l.55-.64,1.22,1.69a.192.192,0,0,0,.18.09h1.32c.12,0,.16-.08.09-.19l-1.89-2.65,1.63-1.87c.08-.11.05-.19-.09-.19h-1.38a.217.217,0,0,0-.18.08l-1.45,1.76V8a.15.15,0,0,0-.16-.15h-1.23a.142.142,0,0,0-.15.15v6.85a.142.142,0,0,0,.15.15h1.23Z" transform="translate(925 1629)" fill="#4b587c"/>
  </g>
</svg>
