<svg xmlns="http://www.w3.org/2000/svg" width="527.904" height="58.788" viewBox="0 0 527.904 58.788">
  <g id="Group_532" data-name="Group 532" transform="translate(-668 -1667)">
    <g id="Group_832" data-name="Group 832" transform="translate(668 1667)">
      <g id="Group_431" data-name="Group 431" transform="translate(0 0)">
        <path id="Path_914" data-name="Path 914" d="M65.34,55.9,7.174,62.294a4.69,4.69,0,0,1-3.507-7.8C14.349,42.334,36.638,15.9,57.311,15.9A22.557,22.557,0,0,1,69.4,19.409c12.772,8.03,8.807,22.451,5.143,30.5a10.238,10.238,0,0,1-9.2,6Z" transform="translate(-0.514 -3.506)" fill="#ffbc00"/>
        <path id="Path_915" data-name="Path 915" d="M56.674,6.162h0c-21.988,0-43.757,24.09-55.981,38.049a4.612,4.612,0,0,1,.47-5.613C11.841,26.431,34.142,0,54.8,0a22.552,22.552,0,0,1,12.1,3.507,18.575,18.575,0,0,1,7.485,8.655A22.078,22.078,0,0,0,72.208,10.6,29.118,29.118,0,0,0,56.691,6.162" transform="translate(0.045 0)" fill="#ffbc00"/>
      </g>
      <g id="Group_431-2" data-name="Group 431" transform="translate(112.569 0)">
        <path id="Path_914-2" data-name="Path 914" d="M65.34,55.9,7.174,62.294a4.69,4.69,0,0,1-3.507-7.8C14.349,42.334,36.638,15.9,57.311,15.9A22.557,22.557,0,0,1,69.4,19.409c12.772,8.03,8.807,22.451,5.143,30.5a10.238,10.238,0,0,1-9.2,6Z" transform="translate(-0.514 -3.506)" fill="#ffbc00"/>
        <path id="Path_915-2" data-name="Path 915" d="M56.674,6.162h0c-21.988,0-43.757,24.09-55.981,38.049a4.612,4.612,0,0,1,.47-5.613C11.841,26.431,34.142,0,54.8,0a22.552,22.552,0,0,1,12.1,3.507,18.575,18.575,0,0,1,7.485,8.655A22.078,22.078,0,0,0,72.208,10.6,29.118,29.118,0,0,0,56.691,6.162" transform="translate(0.045 0)" fill="#ffbc00"/>
      </g>
      <g id="Group_431-3" data-name="Group 431" transform="translate(225.137 0)">
        <path id="Path_914-3" data-name="Path 914" d="M65.34,55.9,7.174,62.294a4.69,4.69,0,0,1-3.507-7.8C14.349,42.334,36.638,15.9,57.311,15.9A22.557,22.557,0,0,1,69.4,19.409c12.772,8.03,8.807,22.451,5.143,30.5a10.238,10.238,0,0,1-9.2,6Z" transform="translate(-0.514 -3.506)" fill="#ffbc00"/>
        <path id="Path_915-3" data-name="Path 915" d="M56.674,6.162h0c-21.988,0-43.757,24.09-55.981,38.049a4.612,4.612,0,0,1,.47-5.613C11.841,26.431,34.142,0,54.8,0a22.552,22.552,0,0,1,12.1,3.507,18.575,18.575,0,0,1,7.485,8.655A22.078,22.078,0,0,0,72.208,10.6,29.118,29.118,0,0,0,56.691,6.162" transform="translate(0.045 0)" fill="#ffbc00"/>
      </g>
      <g id="Group_431-4" data-name="Group 431" transform="translate(337.706 0)">
        <path id="Path_914-4" data-name="Path 914" d="M65.34,55.9,7.174,62.294a4.69,4.69,0,0,1-3.507-7.8C14.349,42.334,36.638,15.9,57.311,15.9A22.557,22.557,0,0,1,69.4,19.409c12.772,8.03,8.807,22.451,5.143,30.5a10.238,10.238,0,0,1-9.2,6Z" transform="translate(-0.514 -3.506)" fill="#ffbc00"/>
        <path id="Path_915-4" data-name="Path 915" d="M56.674,6.162h0c-21.988,0-43.757,24.09-55.981,38.049a4.612,4.612,0,0,1,.47-5.613C11.841,26.431,34.142,0,54.8,0a22.552,22.552,0,0,1,12.1,3.507,18.575,18.575,0,0,1,7.485,8.655A22.078,22.078,0,0,0,72.208,10.6,29.118,29.118,0,0,0,56.691,6.162" transform="translate(0.045 0)" fill="#ffbc00"/>
      </g>
      <g id="Group_431-5" data-name="Group 431" transform="translate(450.275 0)">
        <path id="Path_914-5" data-name="Path 914" d="M65.34,55.9,7.174,62.294a4.69,4.69,0,0,1-3.507-7.8C14.349,42.334,36.638,15.9,57.311,15.9A22.557,22.557,0,0,1,69.4,19.409c12.772,8.03,8.807,22.451,5.143,30.5a10.238,10.238,0,0,1-9.2,6Z" transform="translate(-0.514 -3.506)" fill="#ffbc00"/>
        <path id="Path_915-5" data-name="Path 915" d="M56.674,6.162h0c-21.988,0-43.757,24.09-55.981,38.049a4.612,4.612,0,0,1,.47-5.613C11.841,26.431,34.142,0,54.8,0a22.552,22.552,0,0,1,12.1,3.507,18.575,18.575,0,0,1,7.485,8.655A22.078,22.078,0,0,0,72.208,10.6,29.118,29.118,0,0,0,56.691,6.162" transform="translate(0.045 0)" fill="#ffbc00"/>
      </g>
    </g>
  </g>
</svg>
