<svg id="trustpilot" xmlns="http://www.w3.org/2000/svg" width="117.165" height="28.769" viewBox="0 0 117.165 28.769">
  <path id="Path_354" data-name="Path 354" d="M297.61,98.6h11.861v2.213h-4.664v12.44h-2.565v-12.44H297.6V98.6Zm11.355,4.043h2.192v2.048h.041a2.406,2.406,0,0,1,.4-.838,3.729,3.729,0,0,1,.714-.745,3.8,3.8,0,0,1,.931-.548,2.847,2.847,0,0,1,1.044-.207c.269,0,.465.01.569.021s.207.031.321.041v2.254c-.165-.031-.331-.052-.507-.072a4.3,4.3,0,0,0-.507-.031,2.741,2.741,0,0,0-1.117.238,2.574,2.574,0,0,0-.91.693,3.519,3.519,0,0,0-.62,1.138,4.82,4.82,0,0,0-.228,1.562v5.046h-2.337v-10.6Zm16.959,10.61h-2.3v-1.479h-.041a3.188,3.188,0,0,1-1.282,1.282,3.508,3.508,0,0,1-1.737.486,3.891,3.891,0,0,1-3.03-1.034,4.574,4.574,0,0,1-.931-3.133v-6.732h2.337v6.5a2.858,2.858,0,0,0,.538,1.975,1.947,1.947,0,0,0,1.5.579,2.875,2.875,0,0,0,1.231-.228,2.076,2.076,0,0,0,.8-.61,2.342,2.342,0,0,0,.445-.91,4.481,4.481,0,0,0,.134-1.148v-6.153h2.337Zm3.981-3.4a1.8,1.8,0,0,0,.776,1.437,3.129,3.129,0,0,0,1.624.414,6.943,6.943,0,0,0,.745-.052,3.126,3.126,0,0,0,.786-.2,1.511,1.511,0,0,0,.61-.424,1.029,1.029,0,0,0,.217-.724,1,1,0,0,0-.331-.734,2.329,2.329,0,0,0-.786-.465,7.889,7.889,0,0,0-1.1-.3c-.414-.083-.827-.176-1.251-.269a11.875,11.875,0,0,1-1.262-.352,3.852,3.852,0,0,1-1.086-.558,2.456,2.456,0,0,1-.765-.889,2.781,2.781,0,0,1-.29-1.344,2.423,2.423,0,0,1,.424-1.448,3.214,3.214,0,0,1,1.065-.941,4.936,4.936,0,0,1,1.437-.507,8.752,8.752,0,0,1,1.51-.145,7.039,7.039,0,0,1,1.572.176,4.051,4.051,0,0,1,1.355.569,3.35,3.35,0,0,1,1,1.013,3.528,3.528,0,0,1,.507,1.51h-2.44a1.455,1.455,0,0,0-.765-1.127,3.135,3.135,0,0,0-1.386-.29,4.35,4.35,0,0,0-.589.041,3.227,3.227,0,0,0-.641.155,1.39,1.39,0,0,0-.507.331.8.8,0,0,0-.207.569.884.884,0,0,0,.3.693,2.508,2.508,0,0,0,.776.445,7.891,7.891,0,0,0,1.1.3c.414.083.838.176,1.272.269s.838.217,1.251.352a3.777,3.777,0,0,1,1.1.558,2.753,2.753,0,0,1,.776.879,2.68,2.68,0,0,1,.3,1.313,2.857,2.857,0,0,1-.434,1.6,3.438,3.438,0,0,1-1.117,1.065,5.251,5.251,0,0,1-1.53.6,7.679,7.679,0,0,1-1.665.186,7.063,7.063,0,0,1-1.861-.228,4.532,4.532,0,0,1-1.479-.683,3.384,3.384,0,0,1-.982-1.148,3.768,3.768,0,0,1-.383-1.634h2.358Zm7.714-7.208h1.768V99.458h2.337v3.185h2.11v1.748h-2.11v5.667a5.779,5.779,0,0,0,.031.641,1.179,1.179,0,0,0,.145.455.663.663,0,0,0,.341.279,1.667,1.667,0,0,0,.62.093c.165,0,.331,0,.5-.01a2.737,2.737,0,0,0,.5-.072v1.81c-.259.031-.517.052-.755.083a6.047,6.047,0,0,1-.755.041,5.231,5.231,0,0,1-1.489-.176,1.932,1.932,0,0,1-.879-.517,1.8,1.8,0,0,1-.434-.848,6.376,6.376,0,0,1-.134-1.169v-6.256h-1.768v-1.768Zm7.87,0H347.7v1.437h.041a2.887,2.887,0,0,1,1.375-1.324,4.532,4.532,0,0,1,1.913-.4,4.952,4.952,0,0,1,2.182.445,4.265,4.265,0,0,1,1.551,1.21,5.294,5.294,0,0,1,.92,1.8A7.539,7.539,0,0,1,356,108a7.622,7.622,0,0,1-.279,2.068,5.536,5.536,0,0,1-.838,1.779,4.112,4.112,0,0,1-1.427,1.231,4.233,4.233,0,0,1-2.037.465,5.713,5.713,0,0,1-1.024-.093,4.505,4.505,0,0,1-.982-.3,3.546,3.546,0,0,1-.869-.527,3.274,3.274,0,0,1-.672-.745h-.041v5.295H345.49Zm8.169,5.315a5.281,5.281,0,0,0-.186-1.4,3.764,3.764,0,0,0-.558-1.2,2.846,2.846,0,0,0-.92-.838,2.841,2.841,0,0,0-3.5.7,4.543,4.543,0,0,0-.745,2.73,5.24,5.24,0,0,0,.2,1.489,3.325,3.325,0,0,0,.589,1.179,2.79,2.79,0,0,0,.931.776,2.917,2.917,0,0,0,2.616-.041,2.861,2.861,0,0,0,.91-.848,3.524,3.524,0,0,0,.517-1.189A6.647,6.647,0,0,0,353.659,107.959Zm4.126-9.359h2.337v2.213h-2.337Zm0,4.043h2.337v10.61h-2.337Zm4.426-4.043h2.337v14.653h-2.337V98.6Zm9.5,14.943a5.78,5.78,0,0,1-2.265-.424,4.746,4.746,0,0,1-2.73-2.927,6.825,6.825,0,0,1-.362-2.254,6.745,6.745,0,0,1,.362-2.234,5.044,5.044,0,0,1,1.044-1.768,4.763,4.763,0,0,1,1.686-1.158,6.26,6.26,0,0,1,4.529,0,4.746,4.746,0,0,1,2.73,2.927,6.745,6.745,0,0,1,.362,2.234,6.825,6.825,0,0,1-.362,2.254,5.043,5.043,0,0,1-1.044,1.768,4.762,4.762,0,0,1-1.686,1.158,5.78,5.78,0,0,1-2.265.424Zm0-1.851a2.71,2.71,0,0,0,1.355-.331,2.883,2.883,0,0,0,.941-.858,3.852,3.852,0,0,0,.548-1.2,5.347,5.347,0,0,0,0-2.72,3.536,3.536,0,0,0-.548-1.2,2.852,2.852,0,0,0-.941-.848,2.938,2.938,0,0,0-2.709,0,2.97,2.97,0,0,0-.941.848,3.748,3.748,0,0,0-.548,1.2,5.347,5.347,0,0,0,0,2.72,3.631,3.631,0,0,0,.548,1.2,2.883,2.883,0,0,0,.941.858A2.606,2.606,0,0,0,371.715,111.692Zm6.039-9.048h1.768V99.458h2.337v3.185h2.11v1.748h-2.11v5.667a5.778,5.778,0,0,0,.031.641,1.178,1.178,0,0,0,.145.455.663.663,0,0,0,.341.279,1.667,1.667,0,0,0,.62.093c.165,0,.331,0,.5-.01a2.738,2.738,0,0,0,.5-.072v1.81c-.259.031-.517.052-.755.083a6.044,6.044,0,0,1-.755.041,5.231,5.231,0,0,1-1.489-.176,1.932,1.932,0,0,1-.879-.517,1.8,1.8,0,0,1-.434-.848,6.379,6.379,0,0,1-.134-1.169v-6.256h-1.768v-1.768Z" transform="translate(-266.825 -88.404)" fill="#1c1c1c"/>
  <path id="Path_355" data-name="Path 355" d="M28.055,10.2H17.342L14.033,0l-3.32,10.2L0,10.186l8.676,6.308L5.357,26.68l8.676-6.3,8.666,6.3L19.39,16.494Z" fill="#00b67a"/>
  <path id="Path_356" data-name="Path 356" d="M141.8,161.806l-.745-2.306-5.357,3.888Z" transform="translate(-121.667 -143.006)" fill="#005128"/>
</svg>
